<svg width="200" height="200" viewBox="0 0 200 200" fill="none" xmlns="http://www.w3.org/2000/svg">
<rect width="200" height="200" fill="black"/>
<path d="M40.696 99.6051H31.6761C31.6288 99.0488 31.4335 98.5694 31.0902 98.1669C30.7469 97.7644 30.303 97.4567 29.7585 97.2436C29.2259 97.0187 28.634 96.9062 27.983 96.9062C27.1425 96.9062 26.4205 97.0601 25.8168 97.3679C25.2131 97.6757 24.9171 98.1136 24.929 98.6818C24.9171 99.0843 25.0888 99.4571 25.4439 99.8004C25.8108 100.144 26.5152 100.41 27.5568 100.599L33.0966 101.594C35.8902 102.103 37.9676 102.961 39.3288 104.168C40.7019 105.364 41.3944 106.968 41.4062 108.98C41.3944 110.921 40.8144 112.608 39.6662 114.04C38.5298 115.461 36.9732 116.562 34.9964 117.343C33.0315 118.112 30.7884 118.497 28.267 118.497C24.1004 118.497 20.8393 117.645 18.4837 115.94C16.1399 114.236 14.8319 111.987 14.5597 109.193H24.2898C24.42 110.057 24.8461 110.726 25.5682 111.2C26.3021 111.661 27.2254 111.892 28.3381 111.892C29.2377 111.892 29.9775 111.738 30.5575 111.43C31.1494 111.123 31.4512 110.685 31.4631 110.116C31.4512 109.596 31.1908 109.181 30.6818 108.874C30.1847 108.566 29.4034 108.317 28.3381 108.128L23.5085 107.276C20.7268 106.79 18.6435 105.867 17.2585 104.506C15.8736 103.144 15.187 101.393 15.1989 99.25C15.187 97.3561 15.6842 95.7521 16.6903 94.4382C17.7083 93.1125 19.1584 92.1063 21.0405 91.4197C22.9344 90.7214 25.1776 90.3722 27.7699 90.3722C31.7116 90.3722 34.8189 91.1889 37.0916 92.8224C39.3762 94.456 40.5777 96.7169 40.696 99.6051ZM52.761 118.426C51.021 118.426 49.4821 118.142 48.1445 117.574C46.8188 116.994 45.7771 116.118 45.0195 114.946C44.262 113.774 43.8832 112.283 43.8832 110.472C43.8832 108.98 44.1377 107.708 44.6467 106.654C45.1557 105.589 45.8659 104.719 46.7773 104.044C47.6888 103.369 48.7482 102.854 49.9556 102.499C51.1748 102.144 52.4888 101.913 53.8974 101.807C55.4244 101.688 56.6495 101.546 57.5728 101.381C58.5079 101.203 59.1826 100.96 59.5969 100.653C60.0112 100.333 60.2184 99.9129 60.2184 99.392V99.321C60.2184 98.6108 59.9461 98.0663 59.4016 97.6875C58.8571 97.3087 58.1587 97.1193 57.3065 97.1193C56.3713 97.1193 55.6078 97.3265 55.016 97.7408C54.436 98.1432 54.0868 98.7647 53.9684 99.6051H44.9485C45.0669 97.9479 45.5936 96.4209 46.5288 95.0241C47.4757 93.6155 48.8548 92.491 50.6658 91.6506C52.4769 90.7983 54.7378 90.3722 57.4485 90.3722C59.4016 90.3722 61.1535 90.603 62.7042 91.0646C64.2549 91.5144 65.5747 92.1477 66.6637 92.9645C67.7527 93.7694 68.5813 94.7164 69.1495 95.8054C69.7295 96.8826 70.0195 98.0545 70.0195 99.321V118H60.8576V114.165H60.6445C60.1 115.183 59.4371 116.005 58.6559 116.633C57.8865 117.26 57.0046 117.716 56.0103 118C55.0278 118.284 53.9447 118.426 52.761 118.426ZM55.957 112.247C56.7028 112.247 57.4012 112.093 58.0522 111.786C58.7151 111.478 59.2537 111.034 59.668 110.454C60.0823 109.874 60.2894 109.17 60.2894 108.341V106.068C60.029 106.175 59.7508 106.275 59.4549 106.37C59.1708 106.465 58.863 106.554 58.5316 106.636C58.212 106.719 57.8687 106.796 57.5018 106.867C57.1467 106.938 56.7738 107.003 56.3832 107.062C55.6256 107.181 55.0041 107.376 54.5188 107.648C54.0453 107.909 53.6902 108.234 53.4535 108.625C53.2286 109.004 53.1161 109.43 53.1161 109.903C53.1161 110.661 53.3825 111.241 53.9151 111.643C54.4478 112.046 55.1284 112.247 55.957 112.247ZM84.5037 102.659V118H74.7026V90.7273H84.0066V95.9119H84.2907C84.8825 94.1837 85.9242 92.8284 87.4157 91.8459C88.919 90.8634 90.6709 90.3722 92.6713 90.3722C94.6008 90.3722 96.2757 90.8161 97.6962 91.7038C99.1285 92.5798 100.235 93.7872 101.017 95.326C101.81 96.8648 102.2 98.6226 102.188 100.599V118H92.3873V102.659C92.3991 101.31 92.0558 100.25 91.3574 99.4808C90.6709 98.7114 89.7121 98.3267 88.481 98.3267C87.6761 98.3267 86.9718 98.5043 86.3681 98.8594C85.7762 99.2027 85.3205 99.6998 85.0009 100.351C84.6813 100.99 84.5156 101.759 84.5037 102.659ZM116.899 118.355C114.958 118.355 113.17 117.846 111.537 116.828C109.915 115.81 108.613 114.265 107.631 112.194C106.66 110.122 106.175 107.512 106.175 104.364C106.175 101.073 106.684 98.3977 107.702 96.3381C108.731 94.2784 110.057 92.7692 111.679 91.8104C113.312 90.8516 115.029 90.3722 116.828 90.3722C118.177 90.3722 119.361 90.6089 120.379 91.0824C121.397 91.544 122.249 92.1655 122.936 92.9467C123.622 93.7161 124.143 94.5625 124.498 95.4858H124.64V81.6364H134.442V118H124.711V113.526H124.498C124.12 114.449 123.575 115.277 122.865 116.011C122.166 116.733 121.314 117.308 120.308 117.734C119.314 118.148 118.177 118.355 116.899 118.355ZM120.521 110.827C121.421 110.827 122.19 110.566 122.829 110.045C123.48 109.513 123.978 108.767 124.321 107.808C124.676 106.838 124.854 105.689 124.854 104.364C124.854 103.014 124.676 101.86 124.321 100.901C123.978 99.9306 123.48 99.1908 122.829 98.6818C122.19 98.161 121.421 97.9006 120.521 97.9006C119.622 97.9006 118.852 98.161 118.213 98.6818C117.586 99.1908 117.1 99.9306 116.757 100.901C116.425 101.86 116.26 103.014 116.26 104.364C116.26 105.713 116.425 106.873 116.757 107.844C117.1 108.803 117.586 109.542 118.213 110.063C118.852 110.572 119.622 110.827 120.521 110.827ZM139.253 118V90.7273H148.77V95.9119H149.055C149.552 93.9943 150.339 92.5916 151.416 91.7038C152.505 90.8161 153.778 90.3722 155.233 90.3722C155.66 90.3722 156.08 90.4077 156.494 90.4787C156.92 90.5379 157.329 90.6267 157.719 90.745V99.108C157.234 98.9422 156.636 98.8179 155.926 98.7351C155.216 98.6522 154.606 98.6108 154.097 98.6108C153.138 98.6108 152.274 98.8298 151.505 99.2678C150.747 99.6939 150.149 100.298 149.711 101.079C149.273 101.848 149.055 102.754 149.055 103.795V118H139.253ZM167.263 118.426C165.523 118.426 163.984 118.142 162.646 117.574C161.321 116.994 160.279 116.118 159.521 114.946C158.764 113.774 158.385 112.283 158.385 110.472C158.385 108.98 158.64 107.708 159.149 106.654C159.658 105.589 160.368 104.719 161.279 104.044C162.191 103.369 163.25 102.854 164.458 102.499C165.677 102.144 166.991 101.913 168.399 101.807C169.926 101.688 171.151 101.546 172.075 101.381C173.01 101.203 173.685 100.96 174.099 100.653C174.513 100.333 174.72 99.9129 174.72 99.392V99.321C174.72 98.6108 174.448 98.0663 173.904 97.6875C173.359 97.3087 172.661 97.1193 171.808 97.1193C170.873 97.1193 170.11 97.3265 169.518 97.7408C168.938 98.1432 168.589 98.7647 168.47 99.6051H159.45C159.569 97.9479 160.096 96.4209 161.031 95.0241C161.978 93.6155 163.357 92.491 165.168 91.6506C166.979 90.7983 169.24 90.3722 171.95 90.3722C173.904 90.3722 175.655 90.603 177.206 91.0646C178.757 91.5144 180.077 92.1477 181.166 92.9645C182.255 93.7694 183.083 94.7164 183.651 95.8054C184.231 96.8826 184.521 98.0545 184.521 99.321V118H175.36V114.165H175.146C174.602 115.183 173.939 116.005 173.158 116.633C172.388 117.26 171.507 117.716 170.512 118C169.53 118.284 168.447 118.426 167.263 118.426ZM170.459 112.247C171.205 112.247 171.903 112.093 172.554 111.786C173.217 111.478 173.756 111.034 174.17 110.454C174.584 109.874 174.791 109.17 174.791 108.341V106.068C174.531 106.175 174.253 106.275 173.957 106.37C173.673 106.465 173.365 106.554 173.034 106.636C172.714 106.719 172.371 106.796 172.004 106.867C171.649 106.938 171.276 107.003 170.885 107.062C170.128 107.181 169.506 107.376 169.021 107.648C168.547 107.909 168.192 108.234 167.955 108.625C167.731 109.004 167.618 109.43 167.618 109.903C167.618 110.661 167.884 111.241 168.417 111.643C168.95 112.046 169.63 112.247 170.459 112.247Z" fill="#FFFF00"/>
</svg>
